<?xml version="1.0" encoding="utf-8"?>
<!-- Generator: Adobe Illustrator 24.0.2, SVG Export Plug-In . SVG Version: 6.00 Build 0)  -->
<svg version="1.1" xmlns="http://www.w3.org/2000/svg" xmlns:xlink="http://www.w3.org/1999/xlink" x="0px" y="0px"
	 viewBox="0 0 254.17 85.24" style="enable-background:new 0 0 254.17 85.24;" xml:space="preserve">
<style type="text/css">
	.st0{display:none;}
	.st1{display:inline;opacity:0.35;fill:#FFFFFF;}
	.st2{display:inline;}
	.st3{opacity:0.24;fill:#AAAAAA;}
	.st4{fill:#FFFFFF;}
	.st5{fill:#11295B;}
	.st6{fill:#0649EC;}
</style>
<g id="Layer_3">
</g>
<g id="Reglas" class="st0">
	<g class="st2">
		<path class="st3" d="M-0.03,41.06c0,2.1,0.45,3.97,1.35,5.59c0.9,1.62,2.16,2.89,3.78,3.8c1.62,0.91,3.5,1.37,5.63,1.37
			c1.63,0,3.12-0.3,4.44-0.91c1.33-0.61,2.46-1.44,3.38-2.49c0.93-1.05,1.57-2.24,1.93-3.57h-5.94c-0.33,0.66-0.81,1.2-1.43,1.62
			c-0.62,0.42-1.45,0.62-2.47,0.62c-1,0-1.87-0.23-2.62-0.69c-0.75-0.46-1.32-1.09-1.72-1.89c-0.33-0.65-0.52-1.4-0.58-2.24h15.3
			c0.03-0.36,0.05-0.86,0.06-1.2v-3.29H-0.03V41.06z"/>
		<path class="st3" d="M233.09,41.06c0,2.1,0.45,3.97,1.35,5.59c0.9,1.62,2.16,2.89,3.78,3.8c1.62,0.91,3.5,1.37,5.63,1.37
			c1.63,0,3.12-0.3,4.44-0.91c1.33-0.61,2.46-1.44,3.38-2.49c0.93-1.05,1.57-2.24,1.93-3.57h-5.94c-0.33,0.66-0.81,1.2-1.43,1.62
			c-0.62,0.42-1.45,0.62-2.47,0.62c-1,0-1.87-0.23-2.62-0.69c-0.75-0.46-1.32-1.09-1.72-1.89c-0.33-0.65-0.52-1.4-0.58-2.24h15.3
			c0.03-0.36,0.05-0.86,0.06-1.2v-3.29h-21.12V41.06z"/>
		<path class="st3" d="M116.5,17.33c0,2.1,0.45,3.97,1.35,5.59c0.9,1.62,2.16,2.89,3.78,3.8c1.62,0.91,3.5,1.37,5.63,1.37
			c1.63,0,3.11-0.3,4.44-0.91c1.33-0.61,2.46-1.44,3.38-2.49c0.93-1.05,1.57-2.24,1.93-3.57h-5.94c-0.33,0.66-0.81,1.2-1.43,1.62
			c-0.62,0.42-1.45,0.62-2.47,0.62c-1,0-1.87-0.23-2.62-0.69c-0.75-0.46-1.32-1.09-1.72-1.89c-0.33-0.65-0.52-1.4-0.58-2.24h15.3
			c0.03-0.36,0.05-0.86,0.06-1.2v-3.29H116.5V17.33z"/>
		<path class="st3" d="M116.5,3.29c0,2.1,0.45,3.97,1.35,5.59c0.9,1.62,2.16,2.89,3.78,3.8c1.62,0.91,3.5,1.37,5.63,1.37
			c1.63,0,3.11-0.3,4.44-0.91c1.33-0.61,2.46-1.44,3.38-2.49c0.93-1.05,1.57-2.24,1.93-3.57h-5.94c-0.33,0.66-0.81,1.2-1.43,1.62
			c-0.62,0.42-1.45,0.62-2.47,0.62c-1,0-1.87-0.23-2.62-0.69c-0.75-0.46-1.32-1.09-1.72-1.89c-0.33-0.65-0.52-1.4-0.58-2.24h15.3
			c0.03-0.36,0.05-0.86,0.06-1.2V0H116.5V3.29z"/>
		<path class="st3" d="M116.5,74.48c0,2.1,0.45,3.97,1.35,5.59c0.9,1.62,2.16,2.89,3.78,3.8c1.62,0.91,3.5,1.37,5.63,1.37
			c1.63,0,3.11-0.3,4.44-0.91c1.33-0.61,2.46-1.44,3.38-2.49c0.93-1.05,1.57-2.24,1.93-3.57h-5.94c-0.33,0.66-0.81,1.2-1.43,1.62
			c-0.62,0.42-1.45,0.62-2.47,0.62c-1,0-1.87-0.23-2.62-0.69c-0.75-0.46-1.32-1.09-1.72-1.89c-0.33-0.65-0.52-1.4-0.58-2.24h15.3
			c0.03-0.36,0.05-0.86,0.06-1.2v-3.29H116.5V74.48z"/>
		<path class="st3" d="M116.5,60.44c0,2.1,0.45,3.97,1.35,5.59c0.9,1.62,2.16,2.89,3.78,3.8c1.62,0.91,3.5,1.37,5.63,1.37
			c1.63,0,3.11-0.3,4.44-0.91c1.33-0.61,2.46-1.44,3.38-2.49c0.93-1.05,1.57-2.24,1.93-3.57h-5.94c-0.33,0.66-0.81,1.2-1.43,1.62
			c-0.62,0.42-1.45,0.62-2.47,0.62c-1,0-1.87-0.23-2.62-0.69c-0.75-0.46-1.32-1.09-1.72-1.89c-0.33-0.65-0.52-1.4-0.58-2.24h15.3
			c0.03-0.36,0.05-0.86,0.06-1.2v-3.29H116.5V60.44z"/>
	</g>
</g>
<g id="Layer_1">
	<g>
		<rect x="21.09" y="28.08" class="st4" width="5.81" height="29.07"/>
		<path class="st4" d="M45.75,47.44c0,1.14-0.21,2.1-0.62,2.89c-0.42,0.79-0.98,1.39-1.68,1.81c-0.71,0.42-1.52,0.62-2.43,0.62
			c-1.44,0-2.5-0.42-3.18-1.27c-0.68-0.84-1.02-2.08-1.02-3.72V36.22h-5.81v12.13c0,2.02,0.31,3.72,0.93,5.11
			c0.62,1.38,1.54,2.43,2.74,3.14c1.2,0.71,2.66,1.06,4.38,1.06c1.66,0,3.08-0.35,4.26-1.06c1.18-0.71,2.07-1.65,2.68-2.84
			l0.46,3.41h5.11V36.22h-5.81V47.44z"/>
		<path class="st4" d="M64.4,37.74c-0.76,0.65-1.41,1.42-1.93,2.3l-0.54-3.82h-5.15v20.93h5.81v-9.59c0-1.08,0.14-1.99,0.42-2.72
			c0.28-0.73,0.66-1.32,1.16-1.76c0.5-0.44,1.09-0.75,1.79-0.93c0.69-0.18,1.45-0.27,2.28-0.27h2.03v-6.15
			c-1.19,0-2.28,0.17-3.26,0.52C66.03,36.59,65.16,37.09,64.4,37.74z"/>
		<path class="st4" d="M104.57,34.44c0-0.83,0.19-1.41,0.56-1.74c0.37-0.33,1-0.5,1.89-0.5h1.7v-4.94h-2.62
			c-1.5,0-2.79,0.24-3.88,0.71c-1.09,0.47-1.95,1.23-2.55,2.28c-0.61,1.05-0.91,2.46-0.91,4.24v1.74h-2.82v4.86h2.82v16.07h5.81
			V41.08h4.49v-4.86h-4.49V34.44z"/>
		<path class="st4" d="M121.03,34.44c0-0.83,0.19-1.41,0.56-1.74c0.37-0.33,1-0.5,1.89-0.5h1.7v-4.94h-2.62
			c-1.5,0-2.79,0.24-3.88,0.71c-1.09,0.47-1.95,1.23-2.55,2.28c-0.61,1.05-0.91,2.46-0.91,4.24v1.74h-2.82v4.86h2.82v16.07h5.81
			V41.08h4.49v-4.86h-4.49V34.44z"/>
		<path class="st4" d="M132.28,27.04c-1.05,0-1.91,0.32-2.57,0.97c-0.66,0.65-1,1.47-1,2.47c0,0.97,0.33,1.79,1,2.45
			s1.52,0.99,2.57,0.99c1.05,0,1.91-0.33,2.57-0.99c0.66-0.66,1-1.48,1-2.45c0-1-0.33-1.82-1-2.47
			C134.2,27.37,133.34,27.04,132.28,27.04z"/>
		<rect x="129.34" y="36.22" class="st4" width="5.81" height="20.93"/>
		<path class="st4" d="M146.58,41.6c0.73-0.47,1.57-0.71,2.51-0.71c1.08,0,1.99,0.27,2.74,0.81c0.75,0.54,1.25,1.27,1.5,2.18h6.15
			c-0.5-2.49-1.67-4.44-3.51-5.86c-1.84-1.41-4.12-2.12-6.83-2.12c-2.1,0-3.97,0.47-5.61,1.41c-1.63,0.94-2.91,2.24-3.82,3.9
			c-0.91,1.66-1.37,3.57-1.37,5.73c0,2.1,0.46,3.97,1.37,5.61c0.91,1.63,2.19,2.92,3.82,3.86c1.63,0.94,3.5,1.41,5.61,1.41
			c2.69,0,4.96-0.73,6.81-2.18c1.85-1.45,3.03-3.38,3.53-5.79h-6.15c-0.17,0.61-0.45,1.14-0.85,1.6c-0.4,0.46-0.89,0.81-1.47,1.06
			s-1.22,0.37-1.91,0.37c-0.72,0-1.37-0.15-1.95-0.44c-0.58-0.29-1.09-0.69-1.54-1.2c-0.44-0.51-0.78-1.14-1.02-1.89
			c-0.24-0.75-0.35-1.58-0.35-2.49c0-1.25,0.21-2.32,0.62-3.22C145.27,42.76,145.84,42.07,146.58,41.6z"/>
		<rect x="163" y="36.22" class="st4" width="5.81" height="20.93"/>
		<path class="st4" d="M165.95,27.04c-1.05,0-1.91,0.32-2.57,0.97c-0.66,0.65-1,1.47-1,2.47c0,0.97,0.33,1.79,1,2.45
			c0.66,0.66,1.52,0.99,2.57,0.99c1.05,0,1.91-0.33,2.57-0.99s1-1.48,1-2.45c0-1-0.33-1.82-1-2.47
			C167.86,27.37,167,27.04,165.95,27.04z"/>
		<path class="st4" d="M188.35,37.28c-1.55-0.91-3.36-1.37-5.44-1.37c-2.16,0-4.05,0.48-5.67,1.45c-1.62,0.97-2.87,2.28-3.76,3.95
			c-0.89,1.66-1.33,3.59-1.33,5.77c0,2.1,0.45,3.97,1.35,5.59c0.9,1.62,2.16,2.89,3.78,3.8c1.62,0.91,3.5,1.37,5.63,1.37
			c1.63,0,3.12-0.3,4.44-0.91c1.33-0.61,2.46-1.44,3.38-2.49c0.93-1.05,1.57-2.24,1.93-3.57h-5.94c-0.33,0.66-0.81,1.2-1.43,1.62
			c-0.62,0.42-1.45,0.62-2.47,0.62c-1,0-1.87-0.23-2.62-0.69c-0.75-0.46-1.32-1.09-1.72-1.89c-0.33-0.65-0.52-1.4-0.58-2.24h15.3
			c0.03-0.36,0.05-0.71,0.06-1.06c0.01-0.35,0.02-0.66,0.02-0.93c0-1.99-0.44-3.77-1.31-5.32C191.11,39.43,189.9,38.19,188.35,37.28
			z M178.03,44.8c0.11-0.59,0.28-1.12,0.52-1.58c0.44-0.86,1.04-1.51,1.81-1.95c0.76-0.44,1.61-0.66,2.55-0.66
			c1.25,0,2.29,0.39,3.14,1.16c0.84,0.78,1.31,1.79,1.39,3.03H178.03z"/>
		<path class="st4" d="M72.2,47.08c0,2.1,0.45,3.97,1.35,5.59c0.9,1.62,2.16,2.89,3.78,3.8c1.62,0.91,3.5,1.37,5.63,1.37
			c1.63,0,3.12-0.3,4.44-0.91c1.33-0.61,2.46-1.44,3.38-2.49c0.93-1.05,1.57-2.24,1.93-3.57h-5.94c-0.33,0.66-0.81,1.2-1.43,1.62
			c-0.62,0.42-1.45,0.62-2.47,0.62c-1,0-1.87-0.23-2.62-0.69c-0.75-0.46-1.32-1.09-1.72-1.89c-0.33-0.65-0.52-1.4-0.58-2.24h15.3
			c0.03-0.36,0.05-0.86,0.06-1.2v-3.29H72.2V47.08z"/>
		<path class="st4" d="M213.11,36.82c-1.19-0.73-2.66-1.1-4.4-1.1c-1.63,0-3.03,0.35-4.19,1.06c-1.16,0.71-2.08,1.65-2.74,2.84
			l-0.42-3.41h-5.11v20.93h5.81V45.98c0-1.13,0.2-2.1,0.6-2.89c0.4-0.79,0.96-1.4,1.68-1.83c0.72-0.43,1.52-0.64,2.41-0.64
			c1.44,0,2.51,0.44,3.22,1.31c0.71,0.87,1.06,2.11,1.06,3.72v11.5h5.77V45.11c0-2.02-0.32-3.72-0.96-5.11
			C215.22,38.62,214.3,37.56,213.11,36.82z"/>
		<path class="st4" d="M233.09,41.51v-4.86h-5.44v-5.77h-5.68l-0.13,5.77h-3.61v4.86h3.61v8.64c0,1.86,0.31,3.32,0.93,4.4
			c0.62,1.08,1.5,1.86,2.62,2.33c1.12,0.47,2.42,0.71,3.88,0.71h3.78v-4.94h-2.74c-0.97,0-1.65-0.18-2.06-0.54
			c-0.4-0.36-0.6-1-0.6-1.91v-8.68H233.09z"/>
		<path class="st4" d="M83,39.77L83,39.77c-5.31,0-9.62-4.31-9.62-9.62v-2.9h19.24v2.9C92.61,35.46,88.31,39.77,83,39.77z"/>
	</g>
</g>
</svg>
